<svg xmlns="http://www.w3.org/2000/svg" viewBox="0 0 128 128">
  <rect x="16" y="32" width="96" height="80" rx="20" fill="#FF9E5E"/>
  <polygon points="24,40 16,8 48,28" fill="#FF9E5E"/>
  <polygon points="104,40 112,8 80,28" fill="#FF9E5E"/>
  <polygon points="28,36 22,14 46,30" fill="#FFB88A"/>
  <polygon points="100,36 106,14 82,30" fill="#FFB88A"/>
  <ellipse cx="48" cy="62" rx="14" ry="15" fill="white"/>
  <ellipse cx="80" cy="62" rx="14" ry="15" fill="white"/>
  <ellipse cx="50" cy="64" rx="8" ry="9" fill="#2D2D4E"/>
  <ellipse cx="82" cy="64" rx="8" ry="9" fill="#2D2D4E"/>
  <circle cx="47" cy="60" r="3" fill="white"/>
  <circle cx="79" cy="60" r="3" fill="white"/>
  <ellipse cx="64" cy="78" rx="6" ry="4" fill="#FF6B8A"/>
  <path d="M58 82 Q64 90 70 82" fill="none" stroke="#2D2D4E" stroke-width="2" stroke-linecap="round"/>
  <line x1="20" y1="70" x2="6" y2="66" stroke="#2D2D4E" stroke-width="2" stroke-linecap="round"/>
  <line x1="20" y1="76" x2="6" y2="78" stroke="#2D2D4E" stroke-width="2" stroke-linecap="round"/>
  <line x1="108" y1="70" x2="122" y2="66" stroke="#2D2D4E" stroke-width="2" stroke-linecap="round"/>
  <line x1="108" y1="76" x2="122" y2="78" stroke="#2D2D4E" stroke-width="2" stroke-linecap="round"/>
</svg>