<svg xmlns="http://www.w3.org/2000/svg" viewBox="0 0 128 128">
  <polygon points="64,4 54,24 74,24" fill="#FF7043"/>
  <polygon points="58,6 52,22 68,22 72,6" fill="#FF8A65"/>
  <rect x="18" y="22" width="92" height="86" rx="26" fill="#FFD54F"/>
  <ellipse cx="48" cy="56" rx="12" ry="13" fill="white"/>
  <ellipse cx="80" cy="56" rx="12" ry="13" fill="white"/>
  <ellipse cx="50" cy="58" rx="7" ry="8" fill="#2D2D4E"/>
  <ellipse cx="82" cy="58" rx="7" ry="8" fill="#2D2D4E"/>
  <circle cx="47" cy="54" r="2.5" fill="white"/>
  <circle cx="79" cy="54" r="2.5" fill="white"/>
  <polygon points="64,70 56,80 72,80" fill="#FF8F00"/>
  <ellipse cx="28" cy="68" rx="12" ry="16" fill="#FFCA28" transform="rotate(-12 28 68)"/>
  <ellipse cx="100" cy="68" rx="12" ry="16" fill="#FFCA28" transform="rotate(12 100 68)"/>
  <circle cx="42" cy="76" r="6" fill="#FFE082" opacity="0.6"/>
  <circle cx="86" cy="76" r="6" fill="#FFE082" opacity="0.6"/>
</svg>