<svg xmlns="http://www.w3.org/2000/svg" viewBox="0 0 128 128">
  <rect x="16" y="28" width="96" height="84" rx="22" fill="#C68642"/>
  <ellipse cx="28" cy="36" rx="18" ry="24" fill="#A0622E" transform="rotate(-15 28 36)"/>
  <ellipse cx="100" cy="36" rx="18" ry="24" fill="#A0622E" transform="rotate(15 100 36)"/>
  <ellipse cx="48" cy="58" rx="14" ry="15" fill="white"/>
  <ellipse cx="80" cy="58" rx="14" ry="15" fill="white"/>
  <ellipse cx="50" cy="60" rx="8" ry="9" fill="#2D2D4E"/>
  <ellipse cx="82" cy="60" rx="8" ry="9" fill="#2D2D4E"/>
  <circle cx="47" cy="56" r="3" fill="white"/>
  <circle cx="79" cy="56" r="3" fill="white"/>
  <ellipse cx="64" cy="76" rx="8" ry="6" fill="#2D2D4E"/>
  <ellipse cx="64" cy="74" rx="5" ry="3" fill="#8B6046"/>
  <path d="M56 84 Q64 94 72 84" fill="none" stroke="#2D2D4E" stroke-width="2.5" stroke-linecap="round"/>
  <ellipse cx="64" cy="90" rx="16" ry="10" fill="#E8D0B0"/>
  <path d="M58 86 Q64 96 70 86" fill="#FF6B8A" stroke="none"/>
</svg>