<svg xmlns="http://www.w3.org/2000/svg" viewBox="0 0 128 128">
  <polygon points="40,20 34,2 50,16" fill="#66BB6A"/>
  <polygon points="64,14 58,0 70,0" fill="#66BB6A"/>
  <polygon points="88,20 94,2 78,16" fill="#66BB6A"/>
  <rect x="16" y="24" width="96" height="86" rx="22" fill="#43A047"/>
  <ellipse cx="48" cy="56" rx="14" ry="15" fill="#E8F5E9"/>
  <ellipse cx="80" cy="56" rx="14" ry="15" fill="#E8F5E9"/>
  <ellipse cx="50" cy="58" rx="8" ry="9" fill="#FF6F00"/>
  <ellipse cx="82" cy="58" rx="8" ry="9" fill="#FF6F00"/>
  <ellipse cx="50" cy="60" rx="4" ry="6" fill="#2D2D4E"/>
  <ellipse cx="82" cy="60" rx="4" ry="6" fill="#2D2D4E"/>
  <circle cx="48" cy="56" r="2" fill="#FFA726"/>
  <circle cx="80" cy="56" r="2" fill="#FFA726"/>
  <ellipse cx="64" cy="80" rx="18" ry="14" fill="#66BB6A"/>
  <circle cx="56" cy="78" r="3" fill="#2D2D4E"/>
  <circle cx="72" cy="78" r="3" fill="#2D2D4E"/>
  <path d="M54 86 Q64 94 74 86" fill="none" stroke="#2D2D4E" stroke-width="2.5" stroke-linecap="round"/>
</svg>