<svg xmlns="http://www.w3.org/2000/svg" viewBox="0 0 128 128">
  <polygon points="24,42 12,6 52,30" fill="#E8652B"/>
  <polygon points="104,42 116,6 76,30" fill="#E8652B"/>
  <polygon points="28,38 18,12 50,32" fill="#FFD4A8"/>
  <polygon points="100,38 110,12 78,32" fill="#FFD4A8"/>
  <rect x="16" y="32" width="96" height="80" rx="22" fill="#E8652B"/>
  <ellipse cx="64" cy="82" rx="28" ry="22" fill="white"/>
  <ellipse cx="48" cy="60" rx="13" ry="14" fill="white"/>
  <ellipse cx="80" cy="60" rx="13" ry="14" fill="white"/>
  <ellipse cx="50" cy="62" rx="7" ry="8" fill="#2D2D4E"/>
  <ellipse cx="82" cy="62" rx="7" ry="8" fill="#2D2D4E"/>
  <circle cx="47" cy="58" r="2.5" fill="white"/>
  <circle cx="79" cy="58" r="2.5" fill="white"/>
  <ellipse cx="64" cy="78" rx="5" ry="4" fill="#2D2D4E"/>
  <path d="M58 84 Q64 90 70 84" fill="none" stroke="#2D2D4E" stroke-width="2" stroke-linecap="round"/>
</svg>