<svg xmlns="http://www.w3.org/2000/svg" viewBox="0 0 128 128">
  <circle cx="30" cy="26" r="16" fill="#2D2D4E"/>
  <circle cx="98" cy="26" r="16" fill="#2D2D4E"/>
  <rect x="14" y="28" width="100" height="84" rx="26" fill="white"/>
  <ellipse cx="44" cy="58" rx="16" ry="18" fill="#2D2D4E" transform="rotate(-5 44 58)"/>
  <ellipse cx="84" cy="58" rx="16" ry="18" fill="#2D2D4E" transform="rotate(5 84 58)"/>
  <ellipse cx="46" cy="60" rx="8" ry="9" fill="white"/>
  <ellipse cx="82" cy="60" rx="8" ry="9" fill="white"/>
  <ellipse cx="47" cy="62" rx="5" ry="6" fill="#2D2D4E"/>
  <ellipse cx="81" cy="62" rx="5" ry="6" fill="#2D2D4E"/>
  <circle cx="45" cy="58" r="2" fill="white"/>
  <circle cx="79" cy="58" r="2" fill="white"/>
  <ellipse cx="64" cy="78" rx="6" ry="4" fill="#2D2D4E"/>
  <path d="M58 82 Q64 88 70 82" fill="none" stroke="#2D2D4E" stroke-width="2" stroke-linecap="round"/>
  <circle cx="42" cy="84" r="7" fill="#FFB0C8" opacity="0.4"/>
  <circle cx="86" cy="84" r="7" fill="#FFB0C8" opacity="0.4"/>
</svg>