<svg xmlns="http://www.w3.org/2000/svg" viewBox="0 0 128 128">
  <ellipse cx="30" cy="32" rx="14" ry="18" fill="#F8A0B0" transform="rotate(-15 30 32)"/>
  <ellipse cx="98" cy="32" rx="14" ry="18" fill="#F8A0B0" transform="rotate(15 98 32)"/>
  <ellipse cx="30" cy="32" rx="9" ry="13" fill="#FFB8C8" transform="rotate(-15 30 32)"/>
  <ellipse cx="98" cy="32" rx="9" ry="13" fill="#FFB8C8" transform="rotate(15 98 32)"/>
  <rect x="16" y="30" width="96" height="80" rx="24" fill="#F8A0B0"/>
  <ellipse cx="48" cy="60" rx="12" ry="13" fill="white"/>
  <ellipse cx="80" cy="60" rx="12" ry="13" fill="white"/>
  <ellipse cx="50" cy="62" rx="7" ry="8" fill="#2D2D4E"/>
  <ellipse cx="82" cy="62" rx="7" ry="8" fill="#2D2D4E"/>
  <circle cx="47" cy="58" r="2.5" fill="white"/>
  <circle cx="79" cy="58" r="2.5" fill="white"/>
  <ellipse cx="64" cy="82" rx="16" ry="12" fill="#E8899A"/>
  <circle cx="58" cy="82" r="3.5" fill="#2D2D4E"/>
  <circle cx="70" cy="82" r="3.5" fill="#2D2D4E"/>
  <path d="M56 92 Q64 98 72 92" fill="none" stroke="#2D2D4E" stroke-width="2" stroke-linecap="round"/>
</svg>