<svg xmlns="http://www.w3.org/2000/svg" viewBox="0 0 128 128">
  <circle cx="28" cy="30" r="16" fill="#FF9800"/>
  <circle cx="100" cy="30" r="16" fill="#FF9800"/>
  <circle cx="28" cy="30" r="9" fill="white"/>
  <circle cx="100" cy="30" r="9" fill="white"/>
  <rect x="14" y="28" width="100" height="84" rx="24" fill="#FF9800"/>
  <rect x="54" y="28" width="6" height="14" rx="2" fill="#2D2D4E"/>
  <rect x="44" y="30" width="5" height="10" rx="2" fill="#2D2D4E" transform="rotate(-10 44 30)"/>
  <rect x="80" y="30" width="5" height="10" rx="2" fill="#2D2D4E" transform="rotate(10 80 30)"/>
  <rect x="68" y="28" width="6" height="14" rx="2" fill="#2D2D4E"/>
  <ellipse cx="48" cy="62" rx="14" ry="15" fill="white"/>
  <ellipse cx="80" cy="62" rx="14" ry="15" fill="white"/>
  <ellipse cx="50" cy="64" rx="8" ry="9" fill="#2D2D4E"/>
  <ellipse cx="82" cy="64" rx="8" ry="9" fill="#2D2D4E"/>
  <circle cx="47" cy="60" r="3" fill="white"/>
  <circle cx="79" cy="60" r="3" fill="white"/>
  <ellipse cx="64" cy="80" rx="16" ry="12" fill="white"/>
  <ellipse cx="64" cy="78" rx="5" ry="4" fill="#FF6B8A"/>
  <path d="M58 84 Q64 92 70 84" fill="none" stroke="#2D2D4E" stroke-width="2" stroke-linecap="round"/>
</svg>